<svg width="40" height="40" viewBox="0 0 40 40" fill="none" xmlns="http://www.w3.org/2000/svg">
<path d="M11.25 15.1659C11.5815 15.1659 11.8995 15.0415 12.1339 14.8202C12.3683 14.5988 12.5 14.2985 12.5 13.9854C12.5 13.6723 12.3683 13.3721 12.1339 13.1507C11.8995 12.9293 11.5815 12.8049 11.25 12.8049C10.9185 12.8049 10.6005 12.9293 10.3661 13.1507C10.1317 13.3721 10 13.6723 10 13.9854C10 14.2985 10.1317 14.5988 10.3661 14.8202C10.6005 15.0415 10.9185 15.1659 11.25 15.1659ZM15 15.1659C15.3315 15.1659 15.6495 15.0415 15.8839 14.8202C16.1183 14.5988 16.25 14.2985 16.25 13.9854C16.25 13.6723 16.1183 13.3721 15.8839 13.1507C15.6495 12.9293 15.3315 12.8049 15 12.8049C14.6685 12.8049 14.3505 12.9293 14.1161 13.1507C13.8817 13.3721 13.75 13.6723 13.75 13.9854C13.75 14.2985 13.8817 14.5988 14.1161 14.8202C14.3505 15.0415 14.6685 15.1659 15 15.1659ZM20 13.9854C20 14.2985 19.8683 14.5988 19.6339 14.8202C19.3995 15.0415 19.0815 15.1659 18.75 15.1659C18.4185 15.1659 18.1005 15.0415 17.8661 14.8202C17.6317 14.5988 17.5 14.2985 17.5 13.9854C17.5 13.6723 17.6317 13.3721 17.8661 13.1507C18.1005 12.9293 18.4185 12.8049 18.75 12.8049C19.0815 12.8049 19.3995 12.9293 19.6339 13.1507C19.8683 13.3721 20 13.6723 20 13.9854Z" fill="#EAB308"/>
<path d="M30 3C31.3261 3 32.5979 3.49749 33.5355 4.38304C34.4732 5.26858 35 6.46963 35 7.72198C36.3261 7.72198 37.5979 8.21947 38.5355 9.10501C39.4732 9.99055 40 11.1916 40 12.444V31.3319C40 32.5842 39.4732 33.7853 38.5355 34.6708C37.5979 35.5563 36.3261 36.0538 35 36.0538H10C8.67392 36.0538 7.40215 35.5563 6.46447 34.6708C5.52678 33.7853 5 32.5842 5 31.3319C3.67392 31.3319 2.40215 30.8344 1.46447 29.9488C0.526784 29.0633 0 27.8622 0 26.6099V7.72198C0 6.46963 0.526784 5.26858 1.46447 4.38304C2.40215 3.49749 3.67392 3 5 3H30ZM5 28.9709V12.444C5 11.1916 5.52678 9.99055 6.46447 9.10501C7.40215 8.21947 8.67392 7.72198 10 7.72198H32.5C32.5 7.0958 32.2366 6.49528 31.7678 6.05251C31.2989 5.60973 30.663 5.36099 30 5.36099H5C4.33696 5.36099 3.70107 5.60973 3.23223 6.05251C2.76339 6.49528 2.5 7.0958 2.5 7.72198V26.6099C2.5 27.2361 2.76339 27.8366 3.23223 28.2794C3.70107 28.7221 4.33696 28.9709 5 28.9709ZM7.5 19.5269V31.3319C7.5 31.958 7.76339 32.5586 8.23223 33.0013C8.70107 33.4441 9.33696 33.6928 10 33.6928H35C35.663 33.6928 36.2989 33.4441 36.7678 33.0013C37.2366 32.5586 37.5 31.958 37.5 31.3319V19.5269H7.5ZM37.5 17.1659V12.444C37.5 11.8178 37.2366 11.2173 36.7678 10.7745C36.2989 10.3317 35.663 10.083 35 10.083H10C9.33696 10.083 8.70107 10.3317 8.23223 10.7745C7.76339 11.2173 7.5 11.8178 7.5 12.444V17.1659H37.5Z" fill="#EAB308"/>
</svg>
